<mxfile host="app.diagrams.net" modified="2020-09-16T18:57:48.063Z" agent="5.0 (Windows)" etag="PNSIi7xYTZznJIuynTks" version="13.7.1" type="github">
  <diagram id="9rtOQBFeyjXl_FGlEI51" name="Page-1">
    <mxGraphModel dx="868" dy="428" grid="1" gridSize="10" guides="1" tooltips="1" connect="1" arrows="1" fold="1" page="1" pageScale="1" pageWidth="827" pageHeight="1169" math="0" shadow="0">
      <root>
        <mxCell id="0" />
        <mxCell id="1" parent="0" />
        <mxCell id="O3_qNe8abN4ICVSeK1On-3" value="" style="edgeStyle=orthogonalEdgeStyle;rounded=0;orthogonalLoop=1;jettySize=auto;html=1;" edge="1" parent="1" source="O3_qNe8abN4ICVSeK1On-1" target="O3_qNe8abN4ICVSeK1On-2">
          <mxGeometry relative="1" as="geometry" />
        </mxCell>
        <mxCell id="O3_qNe8abN4ICVSeK1On-1" value="Número de relatos identificados nas fontes de busca: " style="rounded=0;whiteSpace=wrap;html=1;" vertex="1" parent="1">
          <mxGeometry x="40" y="40" width="280" height="60" as="geometry" />
        </mxCell>
        <mxCell id="O3_qNe8abN4ICVSeK1On-7" value="" style="edgeStyle=orthogonalEdgeStyle;rounded=0;orthogonalLoop=1;jettySize=auto;html=1;fontFamily=Helvetica;" edge="1" parent="1" source="O3_qNe8abN4ICVSeK1On-2" target="O3_qNe8abN4ICVSeK1On-6">
          <mxGeometry relative="1" as="geometry" />
        </mxCell>
        <mxCell id="O3_qNe8abN4ICVSeK1On-2" value="Número de relatos após eliminar os duplicados" style="whiteSpace=wrap;html=1;rounded=0;fontFamily=Helvetica;" vertex="1" parent="1">
          <mxGeometry x="45" y="140" width="270" height="60" as="geometry" />
        </mxCell>
        <mxCell id="O3_qNe8abN4ICVSeK1On-4" value="Identificação" style="text;html=1;align=center;verticalAlign=middle;resizable=0;points=[];autosize=1;fontFamily=Helvetica;rotation=270;" vertex="1" parent="1">
          <mxGeometry x="-20" y="70" width="80" height="20" as="geometry" />
        </mxCell>
        <mxCell id="O3_qNe8abN4ICVSeK1On-5" style="edgeStyle=orthogonalEdgeStyle;rounded=0;orthogonalLoop=1;jettySize=auto;html=1;exitX=0.5;exitY=1;exitDx=0;exitDy=0;fontFamily=Helvetica;" edge="1" parent="1" source="O3_qNe8abN4ICVSeK1On-2" target="O3_qNe8abN4ICVSeK1On-2">
          <mxGeometry relative="1" as="geometry" />
        </mxCell>
        <mxCell id="O3_qNe8abN4ICVSeK1On-9" value="" style="edgeStyle=orthogonalEdgeStyle;rounded=0;orthogonalLoop=1;jettySize=auto;html=1;fontFamily=Helvetica;" edge="1" parent="1" source="O3_qNe8abN4ICVSeK1On-6" target="O3_qNe8abN4ICVSeK1On-8">
          <mxGeometry relative="1" as="geometry" />
        </mxCell>
        <mxCell id="O3_qNe8abN4ICVSeK1On-12" value="" style="edgeStyle=orthogonalEdgeStyle;rounded=0;orthogonalLoop=1;jettySize=auto;html=1;fontFamily=Helvetica;" edge="1" parent="1" source="O3_qNe8abN4ICVSeK1On-6" target="O3_qNe8abN4ICVSeK1On-11">
          <mxGeometry relative="1" as="geometry" />
        </mxCell>
        <mxCell id="O3_qNe8abN4ICVSeK1On-6" value="Número de relatos rastreados" style="whiteSpace=wrap;html=1;rounded=0;" vertex="1" parent="1">
          <mxGeometry x="40" y="250" width="280" height="60" as="geometry" />
        </mxCell>
        <mxCell id="O3_qNe8abN4ICVSeK1On-8" value="Número de relatos excluídos" style="whiteSpace=wrap;html=1;rounded=0;" vertex="1" parent="1">
          <mxGeometry x="390" y="250" width="200" height="60" as="geometry" />
        </mxCell>
        <mxCell id="O3_qNe8abN4ICVSeK1On-10" value="Elegibilidade" style="text;html=1;align=center;verticalAlign=middle;resizable=0;points=[];autosize=1;fontFamily=Helvetica;rotation=270;" vertex="1" parent="1">
          <mxGeometry x="-30" y="210" width="90" height="20" as="geometry" />
        </mxCell>
        <mxCell id="O3_qNe8abN4ICVSeK1On-14" value="" style="edgeStyle=orthogonalEdgeStyle;rounded=0;orthogonalLoop=1;jettySize=auto;html=1;fontFamily=Helvetica;" edge="1" parent="1" source="O3_qNe8abN4ICVSeK1On-11" target="O3_qNe8abN4ICVSeK1On-13">
          <mxGeometry relative="1" as="geometry" />
        </mxCell>
        <mxCell id="O3_qNe8abN4ICVSeK1On-16" value="" style="edgeStyle=orthogonalEdgeStyle;rounded=0;orthogonalLoop=1;jettySize=auto;html=1;fontFamily=Helvetica;" edge="1" parent="1" source="O3_qNe8abN4ICVSeK1On-11" target="O3_qNe8abN4ICVSeK1On-15">
          <mxGeometry relative="1" as="geometry" />
        </mxCell>
        <mxCell id="O3_qNe8abN4ICVSeK1On-11" value="Número de artigos em texto completo avaliados para elegibilidade" style="whiteSpace=wrap;html=1;rounded=0;" vertex="1" parent="1">
          <mxGeometry x="40" y="350" width="280" height="60" as="geometry" />
        </mxCell>
        <mxCell id="O3_qNe8abN4ICVSeK1On-13" value="Número de artigos em texto completo excluídos, com justificativa" style="whiteSpace=wrap;html=1;rounded=0;" vertex="1" parent="1">
          <mxGeometry x="390" y="350" width="200" height="60" as="geometry" />
        </mxCell>
        <mxCell id="O3_qNe8abN4ICVSeK1On-18" value="" style="edgeStyle=orthogonalEdgeStyle;rounded=0;orthogonalLoop=1;jettySize=auto;html=1;fontFamily=Helvetica;" edge="1" parent="1" source="O3_qNe8abN4ICVSeK1On-15" target="O3_qNe8abN4ICVSeK1On-17">
          <mxGeometry relative="1" as="geometry" />
        </mxCell>
        <mxCell id="O3_qNe8abN4ICVSeK1On-15" value="Número de estudos incluídos em síntese qualitativa" style="whiteSpace=wrap;html=1;rounded=0;" vertex="1" parent="1">
          <mxGeometry x="40" y="450" width="280" height="60" as="geometry" />
        </mxCell>
        <mxCell id="O3_qNe8abN4ICVSeK1On-17" value="" style="whiteSpace=wrap;html=1;rounded=0;" vertex="1" parent="1">
          <mxGeometry x="40" y="590" width="280" height="60" as="geometry" />
        </mxCell>
      </root>
    </mxGraphModel>
  </diagram>
</mxfile>
